<svg id="Content" xmlns="http://www.w3.org/2000/svg" xmlns:xlink="http://www.w3.org/1999/xlink" viewBox="0 0 90.49 59.48">
  <defs>
    <style>
      .cls-1 {
        fill: #01b3e3;
      }

      .cls-2 {
        fill: url(#linear-gradient);
      }

      .cls-3 {
        fill: url(#linear-gradient-2);
      }

      .cls-4 {
        fill: #fff;
      }

      .cls-5 {
        fill: url(#linear-gradient-3);
      }

      .cls-6 {
        fill: url(#linear-gradient-4);
      }
    </style>
    <linearGradient id="linear-gradient" x1="43.06" y1="1.15" x2="43.06" y2="27.15" gradientUnits="userSpaceOnUse">
      <stop offset="0" stop-color="#01b3e3" stop-opacity="0.9"/>
      <stop offset="1" stop-color="#01b3e3" stop-opacity="0.6"/>
    </linearGradient>
    <linearGradient id="linear-gradient-2" x1="60.23" y1="1.15" x2="60.23" y2="27.15" xlink:href="#linear-gradient"/>
    <linearGradient id="linear-gradient-3" x1="43.06" y1="32.28" x2="43.06" y2="58.28" gradientUnits="userSpaceOnUse">
      <stop offset="0" stop-color="#fff" stop-opacity="0.9"/>
      <stop offset="1" stop-color="#fff" stop-opacity="0.6"/>
    </linearGradient>
    <linearGradient id="linear-gradient-4" x1="60.23" y1="32.28" x2="60.23" y2="58.28" xlink:href="#linear-gradient-3"/>
  </defs>
  <title>logo-small-sprite</title>
  <g>
    <polygon id="_Path_" data-name="&lt;Path&gt;" class="cls-1" points="0 0 0 7.63 7.63 7.63 7.63 28.35 16.35 28.35 16.35 7.63 23.98 7.63 23.98 0 0 0"/>
    <polygon class="cls-1" points="90.49 7.63 90.49 0 77.41 0 68.69 0 68.69 7.63 68.69 28.35 77.41 28.35 77.41 19.62 86.13 19.62 86.13 11.99 77.41 11.99 77.41 7.63 90.49 7.63"/>
    <polygon id="_Path_2" data-name="&lt;Path&gt;" class="cls-1" points="39.25 12.16 35.98 0 26.17 0 33.8 28.35 34.9 28.35 43.61 28.35 39.25 12.16"/>
    <polyline id="_Path_3" data-name="&lt;Path&gt;" class="cls-1" points="58.87 28.35 53.97 10.13 51.24 0 42.52 0 46.88 16.23 50.14 28.35 58.87 28.35"/>
    <polygon id="_Path_4" data-name="&lt;Path&gt;" class="cls-2" points="43.61 28.35 46.88 16.23 42.52 0 39.25 12.16 43.61 28.35 43.61 28.35"/>
    <polygon id="_Path_5" data-name="&lt;Path&gt;" class="cls-3" points="66.5 0 56.69 0 53.97 10.13 58.86 28.35 58.87 28.35 66.5 0"/>
    <polygon id="_Path_6" data-name="&lt;Path&gt;" class="cls-4" points="0 31.13 0 38.77 7.63 38.77 7.63 59.48 16.35 59.48 16.35 38.77 23.98 38.77 23.98 31.13 0 31.13"/>
    <polygon class="cls-4" points="90.49 38.77 90.49 31.13 77.41 31.13 68.69 31.13 68.69 38.77 68.69 59.48 77.41 59.48 77.41 50.76 86.13 50.76 86.13 43.13 77.41 43.13 77.41 38.77 90.49 38.77"/>
    <polygon id="_Path_7" data-name="&lt;Path&gt;" class="cls-4" points="39.25 43.29 35.98 31.13 26.17 31.13 33.8 59.48 34.9 59.48 43.61 59.48 39.25 43.29"/>
    <polyline id="_Path_8" data-name="&lt;Path&gt;" class="cls-4" points="58.87 59.48 53.97 41.27 51.24 31.13 42.52 31.13 46.88 47.36 50.14 59.48 58.87 59.48"/>
    <polygon id="_Path_9" data-name="&lt;Path&gt;" class="cls-5" points="43.61 59.48 46.88 47.36 42.52 31.13 39.25 43.29 43.61 59.48 43.61 59.48"/>
    <polygon id="_Path_10" data-name="&lt;Path&gt;" class="cls-6" points="66.5 31.13 56.69 31.13 53.97 41.27 58.86 59.48 58.87 59.48 66.5 31.13"/>
  </g>
</svg>
