<svg id="Content" xmlns="http://www.w3.org/2000/svg" xmlns:xlink="http://www.w3.org/1999/xlink" viewBox="0 0 347.85 108.97"><defs><style>.cls-1{fill:#01b3e3;}.cls-2{fill:url(#linear-gradient);}.cls-3{fill:url(#linear-gradient-2);}</style><linearGradient id="linear-gradient" x1="165.54" y1="4.4" x2="165.54" y2="104.36" gradientUnits="userSpaceOnUse"><stop offset="0" stop-color="#01b3e3" stop-opacity="0.9"/><stop offset="1" stop-color="#01b3e3" stop-opacity="0.6"/></linearGradient><linearGradient id="linear-gradient-2" x1="231.55" y1="4.4" x2="231.55" y2="104.36" xlink:href="#linear-gradient"/></defs><title>logo-large</title><polygon id="_Path_" data-name="&lt;Path&gt;" class="cls-1" points="0 0 0 29.34 29.34 29.34 29.34 108.97 62.87 108.97 62.87 29.34 92.2 29.34 92.2 0 0 0"/><polygon class="cls-1" points="347.86 29.34 347.86 0 297.56 0 264.03 0 264.03 29.34 264.03 108.97 297.56 108.97 297.56 75.44 331.09 75.44 331.09 46.1 297.56 46.1 297.56 29.34 347.86 29.34"/><polygon id="_Path_2" data-name="&lt;Path&gt;" class="cls-1" points="150.89 46.74 138.3 0 100.58 0 129.92 108.97 134.17 108.97 167.64 108.97 150.89 46.74"/><polyline id="_Path_3" data-name="&lt;Path&gt;" class="cls-1" points="226.31 108.97 207.44 38.95 196.98 0 163.45 0 180.21 62.39 192.73 108.97 226.31 108.97"/><polygon id="_Path_4" data-name="&lt;Path&gt;" class="cls-2" points="167.64 108.97 180.2 62.39 163.44 0 150.88 46.74 167.63 108.97 167.64 108.97"/><polygon id="_Path_5" data-name="&lt;Path&gt;" class="cls-3" points="255.65 0 217.93 0 207.44 38.95 226.26 108.97 226.31 108.97 255.65 0"/></svg>
