<svg id="Content" xmlns="http://www.w3.org/2000/svg" xmlns:xlink="http://www.w3.org/1999/xlink" viewBox="0 0 60.92 19.08">
  <defs>
    <style>
      .cls-1 {
        fill: #fff;
      }

      .cls-2 {
        fill: url(#linear-gradient);
      }

      .cls-3 {
        fill: url(#linear-gradient-2);
      }
    </style>
    <linearGradient id="linear-gradient" x1="28.99" y1="0.77" x2="28.99" y2="18.28" gradientUnits="userSpaceOnUse">
      <stop offset="0" stop-color="#fff" stop-opacity="0.9"/>
      <stop offset="1" stop-color="#fff" stop-opacity="0.7"/>
    </linearGradient>
    <linearGradient id="linear-gradient-2" x1="40.55" y1="0.77" x2="40.55" y2="18.28" xlink:href="#linear-gradient"/>
  </defs>
  <title>logo-micro</title>
  <g id="_Group_" data-name="&lt;Group&gt;">
    <polygon id="_Path_" data-name="&lt;Path&gt;" class="cls-1" points="0 0 0 5.14 5.14 5.14 5.14 19.08 11.01 19.08 11.01 5.14 16.15 5.14 16.15 0 0 0"/>
    <polygon class="cls-1" points="60.92 5.14 60.92 0 52.11 0 46.24 0 46.24 5.14 46.24 19.08 52.11 19.08 52.11 13.21 57.98 13.21 57.98 8.07 52.11 8.07 52.11 5.14 60.92 5.14"/>
    <polygon id="_Path_2" data-name="&lt;Path&gt;" class="cls-1" points="26.43 8.19 24.22 0 17.62 0 22.75 19.08 23.5 19.08 29.36 19.08 26.43 8.19"/>
    <polyline id="_Path_3" data-name="&lt;Path&gt;" class="cls-1" points="39.63 19.08 36.33 6.82 34.5 0 28.63 0 31.56 10.93 33.75 19.08 39.63 19.08"/>
    <polygon id="_Path_4" data-name="&lt;Path&gt;" class="cls-2" points="29.36 19.08 31.56 10.93 28.62 0 26.42 8.19 29.36 19.08 29.36 19.08"/>
    <polygon id="_Path_5" data-name="&lt;Path&gt;" class="cls-3" points="44.77 0 38.17 0 36.33 6.82 39.63 19.08 39.63 19.08 44.77 0"/>
  </g>
</svg>
