<svg id="Content" xmlns="http://www.w3.org/2000/svg" viewBox="0 0 160 80"><title>TWF_Social_Icons-10_1</title><rect width="40" height="40" style="fill:none"/><rect x="40" width="40" height="40" style="fill:none"/><path id="twitter-icon" d="M32.75,12.38a10.15,10.15,0,0,1-2.92.8,5.09,5.09,0,0,0,2.23-2.81,10.17,10.17,0,0,1-3.22,1.23,5.08,5.08,0,0,0-8.65,4.63A14.42,14.42,0,0,1,9.72,10.93a5.08,5.08,0,0,0,1.57,6.78A5.06,5.06,0,0,1,9,17.07a5.08,5.08,0,0,0,4.07,5,5.09,5.09,0,0,1-2.29.09,5.08,5.08,0,0,0,4.74,3.53A10.21,10.21,0,0,1,8,27.83,14.44,14.44,0,0,0,30.22,15,10.32,10.32,0,0,0,32.75,12.38Z" style="fill:#01b3e3"/><path id="facebook-square-rounded-icon" d="M64,14.69H61.49c-0.89,0-1.07.36-1.07,1.28v2.22H64l-0.35,3.89H60.41V33.72H55.77V22.14H53.35V18.19h2.42V15.09c0-2.92,1.56-4.44,5-4.44H64v4Z" style="fill:#01b3e3"/><rect x="80" width="40" height="40" style="fill:none"/><rect x="120" width="40" height="40" style="fill:none"/><path id="linkedin-square-rounded-icon" d="M110.72,7H90.28A3.28,3.28,0,0,0,87,10.28V30.72A3.28,3.28,0,0,0,90.28,34h20.45A3.28,3.28,0,0,0,114,30.72V10.28A3.28,3.28,0,0,0,110.72,7ZM95.59,29.48H91.88v-12h3.71v12ZM93.72,15.94a2.21,2.21,0,1,1,2.19-2.21A2.2,2.2,0,0,1,93.72,15.94Zm15.75,13.54h-3.69V23.19c0-1.72-.65-2.69-2-2.69s-2.26,1-2.26,2.69v6.28H98v-12h3.55v1.61a4.17,4.17,0,0,1,3.61-2c2.54,0,4.36,1.55,4.36,4.76v7.58Z" style="fill:#01b3e3"/><g id="Lozenge"><path d="M157.65,12.38a7.6,7.6,0,0,0-1.4-3.49,5,5,0,0,0-3.52-1.49C147.81,7,140.43,7,140.43,7h0s-7.38,0-12.3.36a5,5,0,0,0-3.52,1.49,7.6,7.6,0,0,0-1.4,3.49,53.15,53.15,0,0,0-.35,5.69v2.67a53.14,53.14,0,0,0,.35,5.69,7.6,7.6,0,0,0,1.4,3.49,6,6,0,0,0,3.88,1.5c2.81,0.27,11.95.35,11.95,0.35s7.39,0,12.3-.37a5,5,0,0,0,3.52-1.49,7.61,7.61,0,0,0,1.4-3.49,53.22,53.22,0,0,0,.35-5.69V18.06A53.22,53.22,0,0,0,157.65,12.38ZM136.8,24V14.09l9.5,5Z" style="fill:#01b3e3"/></g><rect y="40" width="40" height="40" style="fill:none"/><rect x="40" y="40" width="40" height="40" style="fill:none"/><path id="twitter-icon-2" data-name="twitter-icon" d="M32.75,52.38a10.15,10.15,0,0,1-2.92.8,5.09,5.09,0,0,0,2.23-2.81,10.17,10.17,0,0,1-3.22,1.23,5.08,5.08,0,0,0-8.65,4.63A14.42,14.42,0,0,1,9.72,50.93a5.08,5.08,0,0,0,1.57,6.78A5.06,5.06,0,0,1,9,57.07a5.08,5.08,0,0,0,4.07,5,5.09,5.09,0,0,1-2.29.09,5.08,5.08,0,0,0,4.74,3.53A10.21,10.21,0,0,1,8,67.83,14.44,14.44,0,0,0,30.22,55,10.32,10.32,0,0,0,32.75,52.38Z" style="fill:#fff"/><path id="facebook-square-rounded-icon-2" data-name="facebook-square-rounded-icon" d="M64,54.69H61.49c-0.89,0-1.07.36-1.07,1.28v2.22H64l-0.35,3.89H60.41V73.72H55.77V62.14H53.35V58.19h2.42V55.09c0-2.92,1.56-4.44,5-4.44H64v4Z" style="fill:#fff"/><rect x="80" y="40" width="40" height="40" style="fill:none"/><rect x="120" y="40" width="40" height="40" style="fill:none"/><path id="linkedin-square-rounded-icon-2" data-name="linkedin-square-rounded-icon" d="M110.72,47H90.28A3.28,3.28,0,0,0,87,50.28V70.72A3.28,3.28,0,0,0,90.28,74h20.45A3.28,3.28,0,0,0,114,70.72V50.28A3.28,3.28,0,0,0,110.72,47ZM95.59,69.48H91.88v-12h3.71v12ZM93.72,55.94a2.21,2.21,0,1,1,2.19-2.21A2.2,2.2,0,0,1,93.72,55.94Zm15.75,13.54h-3.69V63.19c0-1.72-.65-2.69-2-2.69s-2.26,1-2.26,2.69v6.28H98v-12h3.55v1.61a4.17,4.17,0,0,1,3.61-2c2.54,0,4.36,1.55,4.36,4.76v7.58Z" style="fill:#fff"/><g id="Lozenge-2" data-name="Lozenge"><path d="M157.65,52.38a7.6,7.6,0,0,0-1.4-3.49,5,5,0,0,0-3.52-1.49C147.81,47,140.43,47,140.43,47h0s-7.38,0-12.3.36a5,5,0,0,0-3.52,1.49,7.6,7.6,0,0,0-1.4,3.49,53.15,53.15,0,0,0-.35,5.69v2.67a53.14,53.14,0,0,0,.35,5.69,7.6,7.6,0,0,0,1.4,3.49,6,6,0,0,0,3.88,1.5c2.81,0.27,11.95.35,11.95,0.35s7.39,0,12.3-.37a5,5,0,0,0,3.52-1.49,7.6,7.6,0,0,0,1.4-3.49,53.23,53.23,0,0,0,.35-5.69V58.06A53.23,53.23,0,0,0,157.65,52.38ZM136.8,64V54.09l9.5,5Z" style="fill:#fff"/></g></svg>